<svg id="Layer_3" enable-background="new 0 0 64 64" height="512" viewBox="0 0 64 64" width="512" xmlns="http://www.w3.org/2000/svg"><path d="m54 43h6c1.105 0 2-.895 2-2v-24c0-1.105-.895-2-2-2h-6c-1.105 0-2 .895-2 2v24c0 1.105.895 2 2 2z" fill="#e47c6e"/><path d="m10 43h-6c-1.105 0-2-.895-2-2v-24c0-1.105.895-2 2-2h6c1.105 0 2 .895 2 2v24c0 1.105-.895 2-2 2z" fill="#e47c6e"/><path d="m12 25h40v8h-40z" fill="#8892a0"/><path d="m43 17c-1.657 0-3 1.343-3 3v-2c0-1.657-1.343-3-3-3s-3 1.343-3 3v-2c0-1.657-1.343-3-3-3s-3 1.343-3 3v2c0-1.657-1.343-3-3-3s-3 1.343-3 3v3h-1c-1.657 0-3 1.343-3 3v14c0 3.526 2.609 6.434 6 6.92v6.08h16v-6.683c2.363-1.124 4-3.527 4-6.317v-7.184c1.163-.413 2-1.512 2-2.816v-8c0-1.657-1.343-3-3-3z" fill="#efbe9a"/><path d="m43 32h-3c-.552 0-1-.448-1-1v-11c0-2.206 1.794-4 4-4s4 1.794 4 4v8c0 2.206-1.794 4-4 4zm-2-2h2c1.103 0 2-.897 2-2v-8c0-1.103-.897-2-2-2s-2 .897-2 2z"/><path d="m40 32h-6c-.552 0-1-.448-1-1v-13c0-2.206 1.794-4 4-4s4 1.794 4 4v13c0 .552-.448 1-1 1zm-5-2h4v-12c0-1.103-.897-2-2-2s-2 .897-2 2z"/><path d="m34 32h-6c-.552 0-1-.448-1-1v-4h2v3h4v-14c0-1.103-.897-2-2-2s-2 .897-2 2v5h-2v-5c0-2.206 1.794-4 4-4s4 1.794 4 4v15c0 .552-.448 1-1 1z"/><path d="m29 21h-2v-3c0-1.103-.897-2-2-2s-2 .897-2 2v3h-2v-3c0-2.206 1.794-4 4-4s4 1.794 4 4z"/><path d="m28 32h-4v-2h3v-3h2v4c0 .552-.448 1-1 1z"/><path d="m27 46h-2c-4.411 0-8-3.589-8-8v-14c0-2.206 1.794-4 4-4h6c2.206 0 4 1.794 4 4s-1.794 4-4 4h-2v7h-2v-8c0-.552.448-1 1-1h3c1.103 0 2-.897 2-2s-.897-2-2-2h-6c-1.103 0-2 .897-2 2v14c0 3.309 2.691 6 6 6h2z"/><path d="m31 40h-2c0-2.206-1.794-4-4-4h-4v-2h4c3.309 0 6 2.691 6 6z"/><path d="m31 40h-2c0-2.206 1.794-4 4-4h4v2h-4c-1.103 0-2 .897-2 2z"/><path d="m37 46v-2c3.309 0 6-2.691 6-6v-7h2v7c0 4.411-3.589 8-8 8z"/><path d="m39 44h2v7h-2z"/><path d="m23 45h2v6h-2z"/><path d="m60 44h-6c-1.654 0-3-1.346-3-3v-24c0-1.654 1.346-3 3-3h6c1.654 0 3 1.346 3 3v24c0 1.654-1.346 3-3 3zm-6-28c-.551 0-1 .449-1 1v24c0 .551.449 1 1 1h6c.551 0 1-.449 1-1v-24c0-.551-.449-1-1-1z"/><path d="m46 24h6v2h-6z"/><path d="m44 32h8v2h-8z"/><path d="m10 44h-6c-1.654 0-3-1.346-3-3v-24c0-1.654 1.346-3 3-3h6c1.654 0 3 1.346 3 3v24c0 1.654-1.346 3-3 3zm-6-28c-.551 0-1 .449-1 1v24c0 .551.449 1 1 1h6c.551 0 1-.449 1-1v-24c0-.551-.449-1-1-1z"/><path d="m12 24h6v2h-6z"/><path d="m12 32h6v2h-6z"/><path d="m21 50h22v2h-22z"/></svg>