<svg id="Layer_3" enable-background="new 0 0 64 64" height="512" viewBox="0 0 64 64" width="512" xmlns="http://www.w3.org/2000/svg"><circle cx="54" cy="22" fill="#f5b953" r="8"/><circle cx="54" cy="22" fill="#f9d18b" r="5"/><circle cx="32" cy="10" fill="#f5b953" r="8"/><circle cx="32" cy="10" fill="#f9d18b" r="5"/><circle cx="10" cy="22" fill="#f5b953" r="8"/><circle cx="10" cy="22" fill="#f9d18b" r="5"/><path d="m26 58v-21l-4 4-7-7 3-3 4 4 3-3h14l3 3 4-4 3 3-7 7-4-4v21h-4v-10h-4v10" fill="#4d5d7a"/><g fill="#59ac98"><path d="m38 44v-7l4 4 7-7-3-3-4 4-3-3h-14l-3 3-4-4-3 3 7 7 4-4v7"/><path d="m24 62h6v-4h-4c-1.105 0-2 .895-2 2z"/><path d="m40 62h-6v-4h4c1.105 0 2 .895 2 2z"/></g><path d="m32 30c-1.657 0-3-1.343-3-3v-2c0-1.657 1.343-3 3-3 1.657 0 3 1.343 3 3v2c0 1.657-1.343 3-3 3z" fill="#efbe9a"/><path d="m35 58h-2v-9h-2v9h-2v-10c0-.553.448-1 1-1h4c.552 0 1 .447 1 1z"/><path d="m39 58h-2v-21c0-.404.244-.77.617-.924.374-.156.803-.069 1.09.217l3.293 3.293 5.586-5.586-1.586-1.586-3.293 3.293c-.391.391-1.023.391-1.414 0l-2.707-2.707h-13.172l-2.707 2.707c-.391.391-1.023.391-1.414 0l-3.293-3.293-1.586 1.586 5.586 5.586 3.293-3.293c.286-.286.715-.373 1.09-.217.373.154.617.52.617.924v21h-2v-18.586l-2.293 2.293c-.391.391-1.023.391-1.414 0l-7-7c-.391-.391-.391-1.023 0-1.414l3-3c.391-.391 1.023-.391 1.414 0l3.293 3.293 2.293-2.293c.187-.188.442-.293.707-.293h14c.265 0 .52.105.707.293l2.293 2.293 3.293-3.293c.391-.391 1.023-.391 1.414 0l3 3c.391.391.391 1.023 0 1.414l-7 7c-.391.391-1.023.391-1.414 0l-2.293-2.293z"/><path d="m32 31c-2.206 0-4-1.794-4-4v-2c0-2.206 1.794-4 4-4s4 1.794 4 4v2c0 2.206-1.794 4-4 4zm0-8c-1.103 0-2 .897-2 2v2c0 1.103.897 2 2 2s2-.897 2-2v-2c0-1.103-.897-2-2-2z"/><path d="m26 43h12v2h-12z"/><path d="m30 63h-6c-.552 0-1-.447-1-1v-2c0-1.654 1.346-3 3-3h4c.552 0 1 .447 1 1v4c0 .553-.448 1-1 1zm-5-2h4v-2h-3c-.551 0-1 .448-1 1z"/><path d="m40 63h-6c-.552 0-1-.447-1-1v-4c0-.553.448-1 1-1h4c1.654 0 3 1.346 3 3v2c0 .553-.448 1-1 1zm-5-2h4v-1c0-.552-.449-1-1-1h-3z"/><path d="m34 13h-5v-2h2.586l-2.293-2.293c-.286-.286-.372-.716-.217-1.09s.52-.617.924-.617h5v2h-2.586l2.293 2.293c.286.286.372.716.217 1.09s-.52.617-.924.617z"/><path d="m31 5h2v3h-2z"/><path d="m31 12h2v3h-2z"/><path d="m32 19c-4.962 0-9-4.037-9-9s4.038-9 9-9 9 4.037 9 9-4.038 9-9 9zm0-16c-3.86 0-7 3.141-7 7s3.14 7 7 7 7-3.141 7-7-3.14-7-7-7z"/><path d="m12 25h-5v-2h2.586l-2.293-2.293c-.286-.286-.372-.716-.217-1.09s.52-.617.924-.617h5v2h-2.586l2.293 2.293c.286.286.372.716.217 1.09s-.52.617-.924.617z"/><path d="m9 17h2v3h-2z"/><path d="m9 24h2v3h-2z"/><path d="m10 31c-4.962 0-9-4.037-9-9s4.038-9 9-9 9 4.037 9 9-4.038 9-9 9zm0-16c-3.86 0-7 3.141-7 7s3.14 7 7 7 7-3.141 7-7-3.14-7-7-7z"/><path d="m56 25h-5v-2h2.586l-2.293-2.293c-.286-.286-.372-.716-.217-1.09s.52-.617.924-.617h5v2h-2.586l2.293 2.293c.286.286.372.716.217 1.09s-.52.617-.924.617z"/><path d="m53 17h2v3h-2z"/><path d="m53 24h2v3h-2z"/><path d="m54 31c-4.962 0-9-4.037-9-9s4.038-9 9-9 9 4.037 9 9-4.038 9-9 9zm0-16c-3.86 0-7 3.141-7 7s3.14 7 7 7 7-3.141 7-7-3.14-7-7-7z"/><path d="m14.584 15.572-1.641-1.145c2.75-3.943 6.775-6.92 11.333-8.381l.61 1.904c-4.141 1.329-7.801 4.035-10.302 7.622z"/><path d="m49.386 15.53c-2.5-3.565-6.148-6.257-10.273-7.579l.61-1.904c4.538 1.454 8.552 4.414 11.301 8.335z"/></svg>