<svg id="Layer_3" enable-background="new 0 0 64 64" height="512" viewBox="0 0 64 64" width="512" xmlns="http://www.w3.org/2000/svg"><path d="m2 34h33l-19 28h-14z" fill="#c18e59"/><path d="m54 31-4-3-5-6-3 3 7 8-5 7-4.509-1.803c-.324-.13-.671-.197-1.02-.197-.919 0-1.777.459-2.287 1.224l-5.184 7.776 4 3 4-6 7 3-2.494 4.157c-.331.552-.506 1.183-.506 1.826 0 .665.187 1.316.539 1.88l4.461 7.137 4-2-4-6 4-7 4 2 3-9z" fill="#e47c6e"/><path d="m37 18 3 4 3-3-5-7-4-6h-10l-5 8 3 2 4-6-10 16h-8v4h11l6-8 7 4h-6v4h8.743c1.799 0 3.257-1.458 3.257-3.257 0-1.089-.544-2.106-1.45-2.71l-4.55-3.033 3-6z" fill="#4472b2"/><circle cx="58" cy="26" fill="#efbe9a" r="4"/><circle cx="42" cy="6" fill="#efbe9a" r="4"/><path d="m58 31c-2.757 0-5-2.243-5-5s2.243-5 5-5 5 2.243 5 5-2.243 5-5 5zm0-8c-1.654 0-3 1.346-3 3s1.346 3 3 3 3-1.346 3-3-1.346-3-3-3z"/><path d="m42 11c-2.757 0-5-2.243-5-5s2.243-5 5-5 5 2.243 5 5-2.243 5-5 5zm0-8c-1.654 0-3 1.346-3 3s1.346 3 3 3 3-1.346 3-3-1.346-3-3-3z"/><path d="m48.001 63c-.335 0-.66-.168-.849-.47l-4.461-7.137c-.452-.724-.691-1.557-.691-2.411 0-.824.225-1.633.648-2.34l1.904-3.175-5.182-2.221-3.539 5.308c-.152.229-.393.385-.663.431-.273.043-.549-.021-.769-.186l-4-3c-.425-.318-.526-.913-.232-1.354l5.185-7.776c.962-1.444 2.898-2.046 4.511-1.4l3.779 1.511 4.084-5.717-6.479-7.404c-.347-.396-.326-.994.046-1.366l3-3c.198-.198.478-.296.752-.292.281.013.543.143.724.359l4.925 5.91 3.906 2.93c.113.084.206.191.274.314l5 9c.137.245.163.536.074.802l-3 9c-.091.275-.298.497-.565.607-.268.11-.57.101-.83-.029l-3.154-1.577-3.224 5.642 3.657 5.486c.159.239.208.534.135.812-.074.277-.263.509-.52.638l-4 2c-.143.071-.296.105-.446.105zm-9.001-20c.133 0 .267.026.394.081l7 3c.266.114.469.336.558.611s.055.574-.094.822l-2.494 4.157c-.238.397-.364.85-.364 1.311 0 .479.134.945.387 1.35l3.979 6.366 2.174-1.086-3.372-5.058c-.21-.315-.225-.722-.036-1.051l3.939-6.895 1.967-6.884 1.924.55-1.772 6.202 2.227 1.113 2.496-7.489-4.683-8.429-3.83-2.871c-.062-.046-.119-.1-.169-.16l-4.299-5.159-1.564 1.564 6.385 7.296c.305.349.33.862.061 1.24l-5 7c-.268.375-.759.518-1.185.348l-4.509-1.803c-.755-.303-1.654-.021-2.104.653l-4.66 6.989 2.397 1.798 3.414-5.121c.191-.285.507-.445.833-.445z"/><path d="m34.743 31h-8.743c-.553 0-1-.448-1-1v-4c0-.552.447-1 1-1h2.234l-2.964-1.694-5.47 7.294c-.189.252-.486.4-.8.4h-11c-.553 0-1-.448-1-1v-4c0-.552.447-1 1-1h7.445l5.368-8.589-2.368-1.579c-.45-.3-.58-.903-.293-1.362l5-8c.183-.292.503-.47.848-.47h10c.334 0 .646.167.832.445l4 6 4.981 6.974c.284.397.239.942-.106 1.288l-3 3c-.205.205-.478.308-.778.291-.289-.021-.555-.166-.729-.397l-3-4-1.076-1.612-1.835 3.67 3.815 2.543c1.187.79 1.896 2.114 1.896 3.541 0 2.347-1.909 4.257-4.257 4.257zm-7.743-2h7.743c1.244 0 2.257-1.012 2.257-2.257 0-.756-.376-1.458-1.005-1.878l-4.55-3.033c-.42-.28-.565-.828-.34-1.279l3-6c.159-.319.477-.529.832-.551.372-.029.696.147.895.443l2 3 2.276 3.033 1.586-1.586-4.508-6.311-3.721-5.581h-8.91l-4.192 6.707 1.512 1.008 3.278-5.244 1.695 1.06-10 16c-.183.291-.503.469-.848.469h-7v2h9.5l5.7-7.6c.302-.404.855-.52 1.296-.268l7 4c.394.225.587.687.471 1.125s-.514.743-.967.743h-5z"/><path d="m16 63h-14c-.553 0-1-.448-1-1v-28c0-.552.447-1 1-1h33c.37 0 .71.205.884.532.173.327.151.723-.057 1.03l-19 28c-.185.274-.496.438-.827.438zm-13-2h12.47l17.644-26h-30.114z"/></svg>